#!OML:ASF E:\Mandelcareful walks\Project 1\Capture day 1\Session 1\Subject1.ASF
:FULLY-SPECIFIED
:DEGREES
448
root -10.6952 14.9647 0.761155 -301.871 76.4013 -319.162
lowerback 26.2765 0.700721 -3.49774
upperback 6.41563 0.23528 -2.74148
thorax -7.42156 0.362938 -1.11787
lowerneck -25.5321 13.284 7.79995
upperneck 13.2874 20.1994 -20.0571
head 11.6339 7.69961 -4.61038
rclavicle 5.56597e-015 -4.05521e-014
rhumerus -20.4221 15.623 -87.6458
rradius 54.6379
rwrist -20.8746
rhand -22.0521 -40.1331
rfingers 7.12502
rthumb 4.35844 -70.0682
lclavicle 5.56597e-015 -4.05521e-014
lhumerus 12.1171 -5.99692 74.124
lradius 65.0498
lwrist 21.2089
lhand -42.2339 -29.7328
lfingers 7.12502
lthumb -15.1205 -0.305135
rfemur -48.6409 -19.2431 6.95622
rtibia 66.0878
rfoot -29.6119 -12.3519
rtoes -3.27833
lfemur -57.4303 13.3031 -22.31
ltibia 52.7267
lfoot -9.37836 3.43402
ltoes -12.773
449
root -10.7036 14.9524 0.781864 -301.993 76.5019 -319.193
lowerback 26.2949 0.705221 -3.20682
upperback 6.5593 0.324374 -2.85798
thorax -7.27053 0.405161 -1.4398
lowerneck -24.8942 13.9161 8.46446
upperneck 12.8076 21.0226 -20.8757
head 11.6722 8.10013 -4.81697
rclavicle 1.27222e-014 -4.05521e-014
rhumerus -20.0751 15.6327 -87.6839
rradius 56.0721
rwrist -19.9011
rhand -22.502 -37.8563
rfingers 7.12502
rthumb 3.92401 -67.7999
lclavicle 1.27222e-014 -4.05521e-014
lhumerus 12.5831 -6.66832 73.5235
lradius 66.04
lwrist 21.552
lhand -42.6099 -30.3908
lfingers 7.12502
lthumb -15.4826 -0.990782
rfemur -48.6599 -19.3312 7.14002
rtibia 66.2749
rfoot -29.6173 -12.4347
rtoes -3.97253
lfemur -57.3932 13.2674 -22.0835
ltibia 52.7811
lfoot -9.41786 3.41561
ltoes -12.6252
450
root -10.7103 14.9384 0.800793 -301.745 76.5756 -318.889
lowerback 26.4462 0.746109 -3.22019
upperback 6.53773 0.369079 -2.81257
thorax -7.37014 0.42753 -1.39998
lowerneck -24.117 14.411 8.89551
upperneck 12.4186 21.7351 -21.5712
head 11.6685 8.45895 -4.97531
rclavicle -1.86858e-014 -1.15295e-014
rhumerus -20.0655 15.8891 -87.5431
rradius 57.7796
rwrist -18.9431
rhand -22.7754 -36.5732
rfingers 7.12502
rthumb 3.65998 -66.5215
lclavicle -1.86858e-014 -1.15295e-014
lhumerus 12.7889 -7.03804 73.3727
lradius 66.9243
lwrist 21.7742
lhand -43.0157 -30.9651
lfingers 7.12502
lthumb -15.8735 -1.59572
rfemur -48.7196 -19.3772 7.21014
rtibia 66.4473
rfoot -29.5451 -12.5856
rtoes -4.51977
lfemur -57.4413 13.2155 -21.9724
ltibia 52.9007
lfoot -9.11715 3.30841
ltoes -14.3577
451
root -10.7162 14.9283 0.819439 -301.763 76.5841 -318.829
lowerback 26.5914 0.793934 -3.29264
upperback 6.52187 0.404685 -2.81106
thorax -7.46001 0.446661 -1.3719
lowerneck -23.2885 14.8055 9.29297
upperneck 11.9766 22.3009 -22.2344
head 11.6108 8.76448 -5.15371
rclavicle -2.38542e-015 1.82882e-014
rhumerus -20.1394 16.2034 -87.4532
rradius 59.7381
rwrist -18.0905
rhand -22.6478 -36.7175
rfingers 7.12502
rthumb 3.78326 -66.6637
lclavicle -2.38542e-015 1.82882e-014
lhumerus 12.886 -7.25082 73.3247
lradius 67.8513
lwrist 21.8984
lhand -43.2111 -30.8926
lfingers 7.12502
lthumb -16.0616 -1.53825
rfemur -48.7678 -19.3698 7.27179
rtibia 66.6631
rfoot -29.5546 -12.5833
rtoes -4.5255
lfemur -57.4321 13.2121 -21.866
ltibia 53.0568
lfoot -8.53582 3.18422
ltoes -17.2921
452
root -10.7298 14.9168 0.835812 -301.599 76.5745 -318.649
lowerback 26.7701 0.843267 -3.39756
upperback 6.43667 0.419326 -2.87124
thorax -7.64373 0.455688 -1.38926
lowerneck -22.3284 15.0949 9.90237
upperneck 11.4488 22.6672 -22.9959
head 11.5136 8.99997 -5.45285
rclavicle -2.0276e-014 -1.98785e-015
rhumerus -20.2225 16.4452 -87.4175
rradius 61.7465
rwrist -17.5349
rhand -22.7133 -36.966
rfingers 7.12502
rthumb 3.71994 -66.9133
lclavicle -2.0276e-014 -1.98785e-015
lhumerus 12.9349 -7.55165 73.1691
lradius 68.6727
lwrist 22.0333
lhand -43.1573 -30.8525
lfingers 7.12502
lthumb -16.0099 -1.494
rfemur -48.8989 -19.3752 7.327
rtibia 66.8849
rfoot -29.6763 -12.5055
rtoes -4.29436
lfemur -57.5182 13.143 -21.7967
ltibia 53.2127
lfoot -8.29987 3.17338
ltoes -18.5652
453
root -10.7569 14.8985 0.850762 -300.037 76.6944 -317.316
lowerback 26.7734 0.764982 -3.39134
upperback 6.49193 0.320221 -3.01215
thorax -7.58246 0.411983 -1.51637
lowerneck -22.356 15.3899 10.2595
upperneck 11.1053 23.012 -23.4197
head 11.5735 9.15838 -5.55724
rclavicle 2.18663e-014 6.36111e-014
rhumerus -20.034 16.2672 -87.5161
rradius 63.8911
rwrist -16.5982
rhand -23.1109 -36.8535
rfingers 7.12502
rthumb 3.33604 -66.8072
lclavicle 2.18663e-014 6.36111e-014
lhumerus 13.6197 -7.87828 72.8762
lradius 69.1939
lwrist 22.0645
lhand -43.1017 -30.794
lfingers 7.12502
lthumb -15.9563 -1.43119
rfemur -49.3557 -19.6262 7.39426
rtibia 67.1695
rfoot -29.8316 -12.5609
rtoes -3.81193
lfemur -58.0392 12.8959 -21.9236
ltibia 53.3633
lfoot -8.48871 3.20253
ltoes -17.6968
454
root -10.7401 14.9025 0.851113 -301.562 76.5053 -318.624
lowerback 26.9577 0.890121 -3.44621
upperback 6.5847 0.460307 -3.11854
thorax -7.56856 0.482995 -1.65142
lowerneck -21.7546 15.5619 10.5534
upperneck 10.5148 23.1728 -23.8357
head 11.3888 9.30004 -5.72142
rclavicle 1.98785e-015 -7.67309e-014
rhumerus -19.7029 16.4436 -87.5173
rradius 65.4486
rwrist -15.5926
rhand -23.5973 -35.2983
rfingers 7.12502
rthumb 2.86623 -65.2588
lclavicle 1.98785e-015 -7.67309e-014
lhumerus 13.9482 -8.03569 72.779
lradius 69.5711
lwrist 21.8622
lhand -42.9903 -30.6733
lfingers 7.12502
lthumb -15.849 -1.30194
rfemur -49.1171 -19.3808 7.35783
rtibia 67.2191
rfoot -29.9648 -12.3986
rtoes -3.59138
lfemur -57.6922 13.1836 -21.8291
ltibia 53.4983
lfoot -8.98134 3.36202
ltoes -16.931
455
root -10.7461 14.8935 0.852144 -301.273 76.551 -318.318
lowerback 27.1404 0.843768 -3.58309
upperback 6.56011 0.355602 -3.11737
thorax -7.68682 0.437227 -1.54259
lowerneck -21.427 15.6457 10.5967
upperneck 10.2843 23.2745 -23.9589
head 11.2918 9.38007 -5.75594
rclavicle 9.54166e-015 1.11319e-014
rhumerus -19.1633 16.8615 -87.3963
rradius 66.7638
rwrist -14.7773
rhand -23.4457 -33.9264
rfingers 7.12502
rthumb 3.01267 -63.8849
lclavicle 9.54166e-015 1.11319e-014
lhumerus 14.185 -7.99212 72.7926
lradius 69.7918
lwrist 21.5316
lhand -42.8335 -30.6962
lfingers 7.12502
lthumb -15.698 -1.31294
rfemur -49.1697 -19.477 7.34029
rtibia 67.3198
rfoot -29.9543 -12.3514
rtoes -3.86456
lfemur -57.7953 13.1557 -21.8683
ltibia 53.6341
lfoot -8.72219 3.33914
ltoes -18.0723
456
root -10.7494 14.888 0.85125 -301.444 76.6052 -318.489
lowerback 27.169 0.806115 -3.66327
upperback 6.65966 0.297534 -3.12847
thorax -7.58888 0.41365 -1.48856
lowerneck -21.7421 15.6645 10.3781
upperneck 10.4805 23.3162 -23.6908
head 11.351 9.37103 -5.60771
rclavicle 1.66979e-014 1.98785e-014
rhumerus -18.2084 17.2002 -87.2091
rradius 67.9642
rwrist -13.9765
rhand -23.0673 -34.0674
rfingers 7.12502
rthumb 3.37815 -64.0204
lclavicle 1.66979e-014 1.98785e-014
lhumerus 14.446 -7.93091 72.7556
lradius 70.1006
lwrist 21.3001
lhand -42.7835 -30.7723
lfingers 7.12502
lthumb -15.6499 -1.3853
rfemur -49.165 -19.364 7.29391
rtibia 67.3155
rfoot -30.0145 -11.9858
rtoes -2.90501
lfemur -57.8829 13.1888 -21.8076
ltibia 53.766
lfoot -8.48562 3.28354
ltoes -19.1591
457
root -10.749 14.8866 0.849412 -301.964 76.6359 -319.093
lowerback 27.1113 0.812589 -3.70371
upperback 6.69974 0.299231 -3.16903
thorax -7.51498 0.415279 -1.50881
lowerneck -21.9429 15.4959 10.1105
upperneck 10.6095 23.0709 -23.3376
head 11.2923 9.25249 -5.50177
rclavicle 9.93923e-015 3.69739e-014
rhumerus -17.2484 17.4495 -87.0682
rradius 69.0151
rwrist -13.3211
rhand -23.5228 -33.8622
rfingers 7.12502
rthumb 2.93822 -63.8217
lclavicle 9.93923e-015 3.69739e-014
lhumerus 14.5636 -7.98295 72.7032
lradius 70.4486
lwrist 21.2164
lhand -42.7178 -30.7337
lfingers 7.12502
lthumb -15.5866 -1.3417
rfemur -49.249 -19.2021 7.34219
rtibia 67.3079
rfoot -30.097 -11.5624
rtoes -1.76208
lfemur -58.0168 13.3135 -21.7191
ltibia 53.8923
lfoot -8.48312 3.22174
ltoes -19.3692
458
root -10.7457 14.8811 0.844176 -302.277 76.6418 -319.464
lowerback 27.1618 0.827899 -3.71587
upperback 6.65697 0.300374 -3.26837
thorax -7.58736 0.416223 -1.61495
lowerneck -22.212 15.1571 9.81746
upperneck 10.8687 22.5773 -22.8316
head 11.2223 9.01844 -5.40047
rclavicle 4.33351e-014 -2.42517e-014
rhumerus -16.5724 17.5625 -87.0043
rradius 70.2211
rwrist -12.9785
rhand -24.0666 -33.4591
rfingers 7.12502
rthumb 2.41302 -63.4252
lclavicle 4.33351e-014 -2.42517e-014
lhumerus 14.6297 -8.17984 72.6683
lradius 70.6755
lwrist 21.1105
lhand -42.6117 -30.6704
lfingers 7.12502
lthumb -15.4844 -1.27053
rfemur -49.3739 -19.2649 7.4982
rtibia 67.3119
rfoot -29.9489 -11.9068
rtoes -3.08221
lfemur -58.1342 13.4605 -21.7293
ltibia 54.0111
lfoot -8.52622 3.13055
ltoes -19.1934
459
root -10.7394 14.8768 0.833783 -302.362 76.7134 -319.547
lowerback 27.2732 0.806885 -3.65876
upperback 6.67668 0.279185 -3.37647
thorax -7.61986 0.407939 -1.76368
lowerneck -22.9017 14.7622 9.41622
upperneck 11.3285 22.0139 -22.1433
head 11.2503 8.71957 -5.21879
rclavicle -5.96354e-015 -3.43897e-014
rhumerus -15.6078 17.5219 -86.9129
rradius 71.1956
rwrist -12.6121
rhand -24.2682 -33.363
rfingers 7.12502
rthumb 2.21832 -63.3312
lclavicle -5.96354e-015 -3.43897e-014
lhumerus 14.6483 -8.38339 72.6691
lradius 70.9688
lwrist 21.0005
lhand -42.3541 -30.5169
lfingers 7.12502
lthumb -15.2363 -1.098
rfemur -49.3295 -19.3679 7.52829
rtibia 67.2783
rfoot -30.0668 -11.8249
rtoes -2.87522
lfemur -58.2033 13.5514 -21.7474
ltibia 54.107
lfoot -8.59204 3.0199
ltoes -18.879
460
root -10.7328 14.8764 0.820781 -302.423 76.7978 -319.596
lowerback 27.474 0.784841 -3.75693
upperback 6.65322 0.215249 -3.35292
thorax -7.74537 0.380794 -1.66552
lowerneck -23.4403 14.2927 8.93006
upperneck 11.6041 21.3757 -21.5677
head 11.1891 8.40282 -5.084
rclavicle 2.56432e-014 1.59028e-015
rhumerus -14.4845 17.7054 -86.6806
rradius 71.9247
rwrist -12.2074
rhand -24.3387 -33.3232
rfingers 7.12502
rthumb 2.1503 -63.2921
lclavicle 2.56432e-014 1.59028e-015
lhumerus 14.417 -8.40025 72.8327
lradius 71.3018
lwrist 20.9686
lhand -42.0706 -30.084
lfingers 7.12502
lthumb -14.9631 -0.644498
rfemur -49.2103 -19.3925 7.45354
rtibia 67.223
rfoot -30.1958 -11.3902
rtoes -1.83007
lfemur -58.2526 13.6252 -21.7678
ltibia 54.1819
lfoot -8.5504 2.88978
ltoes -18.9604
461
root -10.7269 14.8779 0.807774 -302.466 76.8189 -319.618
lowerback 27.7181 0.767613 -3.98233
upperback 6.57671 0.117389 -3.277
thorax -7.951 0.339082 -1.42603
lowerneck -23.8011 13.6484 8.15396
upperneck 11.7425 20.5208 -20.8143
head 10.9611 8.01678 -4.89727
rclavicle -2.80286e-014 -2.22639e-014
rhumerus -13.5672 18.041 -86.3913
rradius 72.7617
rwrist -11.9124
rhand -24.212 -33.4543
rfingers 7.12502
rthumb 2.27262 -63.4219
lclavicle -2.80286e-014 -2.22639e-014
lhumerus 14.1571 -8.29406 73.0845
lradius 71.4715
lwrist 20.8707
lhand -42.0808 -29.6065
lfingers 7.12502
lthumb -14.973 -0.167817
rfemur -49.1761 -19.5367 7.49988
rtibia 67.1787
rfoot -29.927 -11.7689
rtoes -3.68167
lfemur -58.2837 13.7244 -21.8657
ltibia 54.2616
lfoot -8.80718 2.83576
ltoes -17.8336
